<svg xmlns="http://www.w3.org/2000/svg" width="114" height="115" viewBox="0 0 114 115">
    <g transform="translate(-750.5 -6092)">
        <rect width="114" height="115" rx="14" transform="translate(750.5 6092)" fill="#fff"/>
        <path d="M27.686,0A12.113,12.113,0,0,0,15.574,12.113c0,5.408,7.917,15.266,10.95,18.844a1.516,1.516,0,0,0,2.326,0C31.883,27.379,39.8,17.521,39.8,12.113A12.113,12.113,0,0,0,27.686,0Zm0,16.15a4.038,4.038,0,1,1,4.038-4.038A4.037,4.037,0,0,1,27.686,16.15ZM1.934,20.76A3.077,3.077,0,0,0,0,23.616V47.68a1.538,1.538,0,0,0,2.109,1.429l13.272-6.041V20.661A29.113,29.113,0,0,1,13.339,16.2ZM27.686,34.576a4.593,4.593,0,0,1-3.51-1.63c-1.89-2.23-3.9-4.77-5.719-7.375v17.5l18.458,6.153V25.572c-1.819,2.6-3.828,5.145-5.719,7.375A4.6,4.6,0,0,1,27.686,34.576ZM53.264,15.493,39.992,21.534V49.22l13.447-5.379a3.076,3.076,0,0,0,1.934-2.856V16.921A1.538,1.538,0,0,0,53.264,15.493Z" transform="translate(778.243 6123.979)" fill="#f86363"/>
    </g>
</svg>