<svg xmlns="http://www.w3.org/2000/svg" width="171.162" height="48.11" viewBox="0 0 171.162 48.11">
    <text transform="translate(72.162 20)" font-size="16" font-family="ComicSansMS-Bold, Comic Sans MS" font-weight="700"><tspan x="0" y="0">Clinicoeurs </tspan><tspan x="0" y="20">Asbl Vielsam</tspan></text>
    <g id="logo" transform="translate(0 0)">
        <path d="M3.317,126.949c-.557-.518-1.142-.98-1.628-1.528A6.592,6.592,0,0,1,0,120.865a6.981,6.981,0,0,1,6.007-6.916,6.584,6.584,0,0,1,5.831,1.9c1.486,1.472,2.9,3.013,4.351,4.523q2.682,2.8,5.363,5.6a1.134,1.134,0,0,1,.4,1.209,1.943,1.943,0,0,1-.424.654q-2.875,3.023-5.766,6.031c-1.252,1.309-2.484,2.638-3.759,3.925a6.91,6.91,0,0,1-3.741,2.058,7.209,7.209,0,0,1-5.208-1.122,6.368,6.368,0,0,1-2.912-4.561,6.881,6.881,0,0,1,.5-4.257,7.563,7.563,0,0,1,2.481-2.827c.062-.045.125-.089.185-.135.012-.01.018-.028,0-.005" transform="translate(0.002 -102.862)" fill="#e28057"/>
        <path d="M288.706,126.886c.557.518,1.142.98,1.628,1.528a6.591,6.591,0,0,1,1.693,4.556,6.981,6.981,0,0,1-6.007,6.916,6.584,6.584,0,0,1-5.831-1.9c-1.486-1.472-2.9-3.013-4.351-4.524q-2.682-2.8-5.363-5.6a1.134,1.134,0,0,1-.4-1.209,1.945,1.945,0,0,1,.424-.654q2.875-3.023,5.766-6.031c1.253-1.309,2.485-2.638,3.759-3.925a6.909,6.909,0,0,1,3.741-2.058,7.21,7.21,0,0,1,5.208,1.122,6.369,6.369,0,0,1,2.912,4.561,6.882,6.882,0,0,1-.5,4.257,7.565,7.565,0,0,1-2.481,2.826c-.062.045-.125.089-.185.135-.013.01-.018.028,0,.005" transform="translate(-243.917 -102.865)" fill="#8bc9f6"/>
        <path d="M126.887,3.317c.517-.557.98-1.142,1.528-1.628A6.592,6.592,0,0,1,132.97,0a6.981,6.981,0,0,1,6.916,6.007,6.584,6.584,0,0,1-1.9,5.831c-1.472,1.486-3.013,2.9-4.524,4.351q-2.8,2.682-5.605,5.363a1.134,1.134,0,0,1-1.209.4,1.943,1.943,0,0,1-.654-.424q-3.023-2.875-6.031-5.766c-1.309-1.252-2.638-2.484-3.925-3.759a6.91,6.91,0,0,1-2.058-3.741A7.209,7.209,0,0,1,115.1,3.055,6.369,6.369,0,0,1,119.661.143a6.882,6.882,0,0,1,4.257.5,7.564,7.564,0,0,1,2.827,2.481c.045.062.089.125.135.185.01.012.028.018.005,0" transform="translate(-102.866 0.002)" fill="#f6c752"/>
        <path d="M126.95,288.706c-.518.557-.98,1.142-1.528,1.627a6.592,6.592,0,0,1-4.557,1.692,6.981,6.981,0,0,1-6.916-6.007,6.584,6.584,0,0,1,1.9-5.831c1.472-1.486,3.013-2.9,4.524-4.351q2.8-2.682,5.605-5.363a1.135,1.135,0,0,1,1.209-.4,1.939,1.939,0,0,1,.654.424q3.023,2.875,6.031,5.766c1.309,1.253,2.638,2.484,3.925,3.759a6.909,6.909,0,0,1,2.058,3.741,7.21,7.21,0,0,1-1.122,5.208,6.369,6.369,0,0,1-4.561,2.912,6.882,6.882,0,0,1-4.257-.5,7.563,7.563,0,0,1-2.827-2.481c-.045-.063-.089-.125-.135-.185-.01-.013-.028-.018-.005,0" transform="translate(-102.863 -243.917)" fill="#86cc80"/>
    </g>
</svg>