<svg xmlns="http://www.w3.org/2000/svg" width="26.592" height="26.592" viewBox="0 0 26.592 26.592">
    <path d="M27.757,21.41v3.7a2.471,2.471,0,0,1-2.7,2.468,24.5,24.5,0,0,1-10.67-3.788,24.085,24.085,0,0,1-7.418-7.4,24.388,24.388,0,0,1-3.8-10.7A2.47,2.47,0,0,1,5.638,3H9.347A2.471,2.471,0,0,1,11.82,5.122a15.818,15.818,0,0,0,.865,3.467,2.464,2.464,0,0,1-.556,2.6l-1.57,1.567a19.762,19.762,0,0,0,7.418,7.4l1.57-1.567a2.476,2.476,0,0,1,2.609-.555,15.9,15.9,0,0,0,3.474.864A2.469,2.469,0,0,1,27.757,21.41Z" transform="translate(-2.167 -2)" fill="none" stroke="#93d894" stroke-linecap="round" stroke-linejoin="round" stroke-width="2"/>
</svg>